# xmcd
#
# Track frame offsets: 
#        150
#        47022
#        102101
#        145243
#        168872
#        200925
#        235132
#        291076
#
# Disc length: 4440 seconds
#
# Revision: 1
# Processed by: cddbd v1.5.2PL0 Copyright (c) Steve Scherf et al.
# Submitted via: ExactAudioCopy v0.90b4
#
DISCID=70115608
DTITLE=Freddie Hubbard - Blue Spirits [2004 Remaster]
DYEAR=1965
DGENRE=Jazz
TTITLE0=Soul Surge
TTITLE1=Blue Spirits
TTITLE2=Outer Forces
TTITLE3=Cunga Black
TTITLE4=Jodo
TTITLE5=The Melting Pot
TTITLE6=True Colors
TTITLE7=Data
EXTD=YEAR: 1965
EXTT0=
EXTT1=
EXTT2=
EXTT3=
EXTT4=
EXTT5=
EXTT6=
EXTT7=
PLAYORDER=
